Coordinates
version=1
nRows=5
nColumns=63
inDegrees=yes

Units are S.I. units (second, meters, Newtons, ...)
If the header above contains a line with 'inDegrees', this indicates whether rotational values are in degrees (yes) or radians (no).

endheader
time	pelvis_tilt	pelvis_list	pelvis_rotation	pelvis_tx	pelvis_ty	pelvis_tz	hip_flexion_r	hip_adduction_r	hip_rotation_r	knee_angle_r	knee_angle_r_beta	ankle_angle_r	subtalar_angle_r	mtp_angle_r	hip_flexion_l	hip_adduction_l	hip_rotation_l	knee_angle_l	knee_angle_l_beta	ankle_angle_l	subtalar_angle_l	mtp_angle_l	L5_S1_Flex_Ext	L5_S1_Lat_Bending	L5_S1_axial_rotation	L4_L5_Flex_Ext	L4_L5_Lat_Bending	L4_L5_axial_rotation	L3_L4_Flex_Ext	L3_L4_Lat_Bending	L3_L4_axial_rotation	L2_L3_Flex_Ext	L2_L3_Lat_Bending	L2_L3_axial_rotation	L1_L2_Flex_Ext	L1_L2_Lat_Bending	L1_L2_axial_rotation	L1_T12_Flex_Ext	L1_T12_Lat_Bending	L1_T12_axial_rotation	Abs_r3	Abs_r2	Abs_r1	Abs_t1	Abs_t2	neck_flexion	neck_bending	neck_rotation	arm_flex_r	arm_add_r	arm_rot_r	elbow_flex_r	pro_sup_r	wrist_flex_r	wrist_dev_r	arm_flex_l	arm_add_l	arm_rot_l	elbow_flex_l	pro_sup_l	wrist_flex_l	wrist_dev_l
      6.71698113	      8.49463649	    -10.31640291	    115.34030355	      0.24817556	      0.38110277	      0.64899016	      5.98748316	      7.54074538	    -23.86987913	     10.80888115	      0.18865056	     24.69836452	     16.62021631	      0.00000000	     12.80155183	    -11.51728042	      8.34342644	     15.42864026	      0.26928057	     22.66391760	    -11.56888757	      0.00000000	      0.04068239	      1.01473112	      1.41542613	      0.07555126	      1.34959239	      1.50389026	      0.06683710	      2.46721725	      1.50389026	      0.04649590	      2.46721725	      1.23849786	      0.03777767	      2.06923970	      1.15003373	      0.02324592	      1.57181851	      1.06156960	      0.29059024	     11.47884140	      7.87217550	      0.00000000	      0.00000000	     13.97123096	     -6.16583686	     -6.78228678	    -30.32535269	    -34.88115569	    -11.48632809	    116.18522728	     75.94074227	     -0.06146736	      1.22908813	     15.31569988	      9.36566343	    192.56760705	      0.12258223	      1.25816216	    -69.69463736	    -23.74875877
      6.73584906	      8.66240731	    -10.11255406	    116.13966238	      0.24805100	      0.38057972	      0.64975930	      5.89011067	      7.76739774	    -24.32685593	     10.84784700	      0.18933065	     24.51519794	     16.23547140	      0.00000000	     12.97027141	    -11.64633307	      9.12583934	     15.47572001	      0.27010227	     22.77094463	    -11.47609061	      0.00000000	      0.02466123	      1.02326942	      1.42753247	      0.04579836	      1.36094833	      1.51675325	      0.04051593	      2.48797727	      1.51675325	      0.02818532	      2.48797727	      1.24909091	      0.02290041	      2.08665100	      1.15987013	      0.01409142	      1.58504433	      1.07064935	      0.17615267	     11.57542833	      7.93950735	      0.00000000	      0.00000000	     13.80685266	     -5.76195600	     -7.63054557	    -31.35852174	    -33.63320783	    -13.77999212	    115.33595945	     77.06931038	     -5.57231263	     -1.80815626	     15.52551224	      9.60630357	    193.39077766	      0.12284746	      1.24180015	    -69.69711308	    -23.70013260
      6.75471698	      8.85931972	     -9.90856975	    116.55755638	      0.24859311	      0.37984575	      0.64990392	      5.81284524	      8.08697853	    -24.45852059	     10.90390696	      0.19030908	     24.68175735	     16.06664051	      0.00000000	     12.99380096	    -11.94228714	      9.32945743	     15.49801086	      0.27049132	     22.63452248	    -11.31923862	      0.00000000	      0.01617882	      1.03690333	      1.39088244	      0.03004568	      1.37908143	      1.47781259	      0.02658018	      2.52112677	      1.47781259	      0.01849077	      2.52112677	      1.21702213	      0.01502365	      2.11445328	      1.13009198	      0.00924458	      1.60616326	      1.04316183	      0.11556369	     11.72965789	      7.73567085	      0.00000000	      0.00000000	     13.38008935	     -5.04928082	     -7.50129084	    -30.17652900	    -32.59830548	    -15.12552076	    115.93013886	     77.22125901	     -6.39447433	     -2.11019347	     15.58856619	      9.73474217	    193.28385030	      0.12346161	      1.28084636	    -69.69971569	    -23.70042433
      6.77358491	      9.15850147	     -9.71510697	    117.95974172	      0.24825385	      0.37886600	      0.65082161	      5.74848937	      8.50473327	    -25.55365152	     10.58724615	      0.18478230	     24.89628200	     15.71455469	      0.00000000	     13.50519556	    -12.13265452	     10.36477615	     15.75300220	      0.27494176	     22.65954617	    -10.35691104	      0.00000000	      0.03372814	      1.05924318	      1.16871934	      0.06263653	      1.40879343	      1.24176430	      0.05541197	      2.57544387	      1.24176430	      0.03854789	      2.57544387	      1.02262942	      0.03131995	      2.16000869	      0.94958446	      0.01927226	      1.64076768	      0.87653950	      0.24091675	     11.98237069	      6.50006634	      0.00000000	      0.00000000	     13.04354388	     -3.46800490	     -6.70688517	    -27.23404689	    -32.21630386	    -14.59390876	    118.47952314	     81.57195271	     -9.74657265	     -0.11608456	     15.71057950	      9.92914425	    192.81035205	      0.12327505	      1.35486931	    -69.69682623	    -23.72868584
      6.79245283	      9.34365839	     -9.54109355	    118.95274834	      0.24862549	      0.37819310	      0.65137625	      5.66530576	      8.86646612	    -26.19399695	     10.29258070	      0.17963942	     25.05379906	     15.47628052	      0.00000000	     13.80146290	    -12.32210868	     10.86160666	     15.87843145	      0.27713091	     22.52242000	     -9.42507410	      0.00000000	      0.05331719	      1.06781911	      0.95154029	      0.09901535	      1.42019942	      1.01101155	      0.08759481	      2.59629539	      1.01101155	      0.06093622	      2.59629539	      0.83259775	      0.04951034	      2.17749673	      0.77312648	      0.03046544	      1.65405180	      0.71365521	      0.38083935	     12.07938335	      5.29218161	      0.00000000	      0.00000000	     12.25899460	     -2.11213337	     -5.89739220	    -21.46683439	    -32.39103592	    -12.15883277	    120.99704230	     82.46920753	     -8.29036011	      2.92623312	     15.77256253	     10.02309776	    191.73941474	      0.12119434	      1.35737002	    -69.69526053	    -23.71933782
